# xmcd CD database file
#
# Track frame offsets:
#	150
#	19384
#	40072
#	64827
#	87647
#	105710
#	129010
#	147310
#	166172
#	183198
#	206747
#	234947
#	254822
#	278185
#	297360
#	319322
#
# Disc length: 4631 seconds
#
# Revision: 0
# Processed by: cddbd v1.5.1PL2 Copyright (c) Steve Scherf et al.
# Submitted via: CDex 1.51
#
DISCID=ef121510
DTITLE=木根尚登 - HANDMADE GALLERY 〜The best works of NAOTO KINE〜
DYEAR=2005
DGENRE=JPop
TTITLE0=Clover／日置明子
TTITLE1=あてのない闇／宇都宮隆
TTITLE2=何故…／木村由姫
TTITLE3=なぐさめよりもエールを送るよ／彩恵津子
TTITLE4=REMEMbER ME?／木根尚登
TTITLE5=LULLABY〜夢のままで〜／吉田栄作
TTITLE6=soft parade／globe
TTITLE7=Melody／浅香唯
TTITLE8=うつむきかげん／南野陽子
TTITLE9=長い影／木根尚登
TTITLE10=恋と愛の距離／田中裕子
TTITLE11=こぶし／渡辺美里
TTITLE12=彼方より〜A LONG DISTANT LOVE〜/スピード・ウェイ
TTITLE13=Jungle Life／椎名へきる
TTITLE14=TWO CANDLES／村井麻里子
TTITLE15=Root of The Tree／木根尚登
EXTD=YEAR: 2005
EXTT0=
EXTT1=
EXTT2=
EXTT3=
EXTT4=
EXTT5=
EXTT6=
EXTT7=
EXTT8=
EXTT9=
EXTT10=
EXTT11=
EXTT12=
EXTT13=
EXTT14=
EXTT15=
PLAYORDER=
